# xmcd CD database file
#
# Track frame offsets:
#	150
#	23173
#	53514
#	82109
#	98318
#	138114
#	161822
#	186772
#	210989
#	231668
#
# Disc length: 3473 seconds
#
# Revision: 0
# Processed by: cddbd v1.5.2PL0 Copyright (c) Steve Scherf et al.
# Submitted via: CDex 1.70beta2
#
DISCID=780d8f0a
DTITLE=Various Artist - Mark Hummel's Harmonica Blowout Disc 1
DYEAR=1900
DGENRE=Blues
TTITLE0=Mark Hummel - Harpo-Ventilating
TTITLE1=Lee Oskar - In A Sentimental Mood
TTITLE2=Magic Dick - Pontiac Blues
TTITLE3=Johnny Dyer - You're Sweet
TTITLE4=William Clarke - Lonesome Bedroom Blues
TTITLE5=Paul DeLay - Blues And Trouble
TTITLE6=Carey Bell - I Got To Go
TTITLE7=James Harman - Extra Napkins
TTITLE8=Sam Myers - I Done Quit Gettin' Sloppy Drunk
TTITLE9=William Clarke - Stretch My Money
EXTD=
EXTT0=
EXTT1=
EXTT2=
EXTT3=
EXTT4=
EXTT5=
EXTT6=
EXTT7=
EXTT8=
EXTT9=
PLAYORDER=
